<svg xmlns="http://www.w3.org/2000/svg" xmlns:xlink="http://www.w3.org/1999/xlink" width="123" height="85" viewBox="0 0 123 85"><defs><path id="e0sza" d="M1333 1030.16c11.66-.02 23.32-.05 34.98.02 4.39-.07 8.27 3.96 8.17 8.4.1 7.24-.02 14.5.05 21.76 3.3-.03 6.6-.03 9.92 0 0-1.33 0-2.64.02-3.94 1.18 0 2.35.02 3.54.04-.04 2.5-.04 5.01-.03 7.54-5.87-.1-11.74.08-17.62-.11.2-8.23-.03-16.47.14-24.7-14.48-.13-28.95-.08-43.42-.02.02 8.29.12 16.6-.06 24.89-5.8-.18-11.63-.06-17.44-.06 0-2.53 0-5.04-.03-7.54 1.18-.03 2.36-.04 3.54-.04l.01 3.94c3.3-.03 6.61-.03 9.93 0 .07-7.26-.07-14.53.04-21.8-.1-4.46 3.84-8.52 8.26-8.38zm-12.8 16.3c-.25 5.47-7.33 8.62-11.5 5.15-4.53-3.08-3.5-11 1.7-12.73l1.16-.38c4.5-1.02 9.36 3.15 8.65 7.95zm-8.64-7.96c2-.67 1-.34 0 0zm-.35 10.42c2.25 1.6 5.57-.58 5.45-3.23.1-2.57-3.1-4.7-5.32-3.25-2.53 1.2-2.64 5.2-.13 6.48zm83.82-2.35c-.26 5.6-7.74 8.57-11.77 4.8-4.38-3.35-2.9-11.2 2.41-12.63l1.18-.31c4.43-.72 9 3.48 8.18 8.14zm-9.62 1.82c1.85 2.15 5.6.76 6.05-1.92.69-2.79-2.4-5.3-4.98-4.18-2.33.95-3.1 4.42-1.07 6.1zm-35.83 5.44c1.37 0 2.74.03 4.12.05l.07 3.9c3.55.35 8.23 1.37 9.06 5.56.98 3.35-1.36 6.11-3.58 8.24 1.49 1.02 3.37 1.73 4.22 3.46 1.68 3.25.63 7.73-2.4 9.81-2.12 1.57-4.8 1.93-7.34 2.39l-.03 4.05c-1.44-.07-2.88-.1-4.3-.14l.05-3.98-2.15.29.08 3.76c-1.41 0-2.83.01-4.24.03l-.06-4.01c-1.62-.02-3.22-.01-4.83 0l.1-4.58 2.74-.02c.04-6.76.11-13.53-.05-20.29l-2.77-.13c0-1.47 0-2.94-.02-4.39l4.89-.04-.05-3.92c1.42-.01 2.84-.02 4.26-.01v3.92l1.97.16c.08-1.38.16-2.75.26-4.11.1-1.36 0 0 0 0zm-2.24 8.38v7.76c2.69-.2 5.96.57 8.08-1.56 1.48-1.38 1.36-4.19-.45-5.2-2.3-1.36-5.1-.86-7.63-1-2.53-.14 0 0 0 0zm0 20.5c3.03-.18 6.62.53 9.05-1.76a3.54 3.54 0 0 0-.32-5.49c-2.58-1.67-5.83-1.06-8.73-1.2v8.44zm-53.56-17.11c.28-.11.57-.2.85-.27 2.5-.79 1.07-.34 0 0 4.85-1.17 9.94 3.66 8.65 8.73-.88 5.34-8.15 7.74-11.96 3.91-4.07-3.41-2.57-10.78 2.46-12.37zm.1 9.77c1.98 1.93 5.43.44 5.92-2.14.64-2.76-2.54-5.4-5.08-4.1-2.4.98-2.9 4.64-.84 6.24zm108.63-9.82c.36-.14.72-.24 1.09-.3 2.14-.58 1.03-.28 0 0 4.72-.83 9.48 3.97 8.17 8.86-.88 5.3-8.06 7.66-11.87 3.9-4.2-3.41-2.6-11.05 2.6-12.46zm-.46 9.47c1.64 2.1 5.18 1.32 6.03-1.14 1.39-2.76-1.94-6.07-4.68-4.83-2.3.85-3.24 4.2-1.35 5.97zm-73.28-7.09c.02 3.08.02 6.17.02 9.27h-4.1v-2.86c-6 .05-12 .02-18 .03l.1-3.68c5.9.11 11.81-.07 17.72.13l.3-2.93c1.32 0 2.64.02 3.96.04zm47.33-.06l.23 2.94c5.92-.17 11.86 0 17.78-.1l.06 3.66c-6-.02-12 0-18-.03l.11 2.77-4.21.1c.07-3.07.07-6.13-.04-9.19 1.35-.06 2.71-.11 4.07-.15zm-64.8 13.16c5.81.3 11.64-.06 17.46.05.03 8.27.03 16.55 0 24.82 14.46.22 28.9 0 43.36.02 0-8.28-.02-16.57 0-24.85 5.83-.07 11.66.33 17.49-.04.02 2.54.03 5.09.07 7.64l-3.58-.01.05-3.88c-3.33-.07-6.66-.2-9.99-.04.02 7.08.04 14.18.02 21.27a8.58 8.58 0 0 1-4.16 7.73c-2.27 1.41-5.03 1.2-7.57 1.26-10.54-.11-21.09.1-31.62-.08a8.41 8.41 0 0 1-8.07-8.04c-.13-7.37-.02-14.76-.04-22.13a87.4 87.4 0 0 0-10 .01l.08 3.89c-.9 0-2.7 0-3.6.02l.1-7.64c.03-2.53 0 0 0 0zm35.04 31.68c2.12.9 4.58.48 6.82.44 2.51.15 2.4-3.6 1.3-4.95-2.59-.58-5.46-.58-8.05 0a4.1 4.1 0 0 0-.07 4.51zm-35.01-20.52c.2-.05.4-.1.6-.13 1.58-.35.71-.16 0 0a7.34 7.34 0 0 1 1.74 14.57c-3.87.47-7.8-2.8-7.84-6.81a7.23 7.23 0 0 1 5.5-7.63zm-1.24 9.33c1.37 2.08 4.75 1.97 5.97-.2 1.91-2.59-.92-6.47-3.9-5.6-2.44.53-3.7 3.8-2.07 5.8zm84.88-.76c-.76 5.64-8.62 7.94-12.29 3.65-3.85-3.65-1.87-10.89 3.22-12.14l.96-.24c4.66-.76 9.3 3.9 8.11 8.73zm-8.11-8.73c2.3-.56 1.05-.25 0 0zm-1.65 9.8c1.67 2.07 5.2 1.29 6.08-1.15 1.22-2.75-1.77-5.92-4.5-4.88-2.45.71-3.45 4.18-1.58 6.02z"/></defs><g><g transform="translate(-1289 -1030)"><use fill="#bfc9ce" xlink:href="#e0sza"/></g></g></svg>