<svg xmlns="http://www.w3.org/2000/svg" xmlns:xlink="http://www.w3.org/1999/xlink" width="131" height="81" viewBox="0 0 131 81"><defs><path id="pyika" d="M584.17 1038.18a40.26 40.26 0 0 1 21.47 20.86c-1.52 0-3.03-.02-4.55-.07-5.49-11.09-17.05-18.54-29.14-19.32-13.61-1.15-27.27 6.93-33.37 19.34-1.53.05-3.05.03-4.56-.05 4.3-9.15 11.77-16.84 21.1-20.57a38.62 38.62 0 0 1 29.05-.19zm-24.54 10.58h5.89l.01 5.6 3.11.02.01-5.63h5.89v5.61c4.33.53 9.57 1.24 12.01 5.46 2.95 5.1.21 12.2-5.18 14.17 2.91.87 5.85 2.48 7.25 5.38 2.03 4.47.74 10.37-3.16 13.37-3.1 2.45-7.1 3.2-10.9 3.65-.02 1.95-.03 3.9-.07 5.84-1.94-.05-3.87-.06-5.81-.03-.02-1.91-.03-3.83-.08-5.75l-3.12.14c.03 1.87.04 3.73.03 5.6l-5.88-.01c0-1.86 0-3.72.06-5.58a104.9 104.9 0 0 0-6.97-.09c-.03-2.1-.03-4.2-.03-6.29 1.34-.22 3.93.63 4.06-1.54.18-8.67.06-17.35.06-26.02.2-2.45-2.52-1.89-4.07-1.9-.05-2.13-.06-4.25-.05-6.37 2.3 0 4.62.01 6.93-.03l.01-5.6c0-1.87 0 0 0 0zm5.89 11.96c0 3.7-.02 7.41 0 11.13 3.63-.28 7.76.63 10.91-1.69 2.63-1.77 2.9-6.34.08-8.05-3.3-2.02-7.34-1.22-11-1.4-3.64-.16 0 0 0 0zm.01 29.25c4.18-.22 8.97.81 12.5-2.08 2.61-1.91 2.74-6.43-.01-8.25-3.7-2.46-8.34-1.54-12.5-1.72 0 4.02-.03 8.03.01 12.05zm-39.75-27.37c.84 3.42-2.14 7.12-5.58 6.96-3.18.14-6.02-3-5.68-6.22a5.86 5.86 0 0 1 4.55-5.25l.22-.05a5.79 5.79 0 0 1 6.5 4.56zm-6.49-4.56c1.64-.34.52-.1 0 0zm.3 8.63c1.9.53 3.74-1.4 3.32-3.33-.05-2.2-3.04-3.37-4.56-1.8-1.62 1.46-.98 4.7 1.24 5.13zm105.18-.72c-1.39 3.88-6.99 4.93-9.53 1.66-3.01-3.06-1.01-8.85 3.12-9.52l.83-.14c3.89-.29 7.3 4.23 5.58 8zm-5.58-8c1.77-.29.84-.14 0 0zm-.34 8.72c1.9.54 3.75-1.4 3.35-3.33-.07-2.2-3.04-3.38-4.55-1.8-1.61 1.44-1 4.7 1.2 5.13zm-81.75-4.43a48.72 48.72 0 0 0-2.25 8.32l-3.94-.05c.3-1.72.6-3.44.87-5.16l-3.25.1-.01-3.28c2.86.02 5.72 0 8.58.07zm74.07-.07l-.03 3.36-3.25-.18c.28 1.73.59 3.44.9 5.17-1.33 0-2.66 0-3.99.02a44.72 44.72 0 0 0-2.22-8.3c2.86-.07 5.72-.05 8.59-.07zm-95.25 11.2c1.21 3.09-.87 6.8-3.99 7.55-2.93.86-6.2-1.26-6.9-4.24a5.86 5.86 0 0 1 3.56-6.84l.5-.18a5.7 5.7 0 0 1 6.83 3.7zm-6.82-3.7c1.17-.43.54-.2 0 0zm.25 8.29c1.75 1 4.15-.59 3.93-2.64.27-2.12-2.21-3.75-4-2.68-2 .97-1.95 4.4.07 5.32zm125.3-4.07c.84 3-1.21 6.3-4.13 7.02-2.93.87-6.2-1.22-6.9-4.2a5.84 5.84 0 0 1 3.57-6.88l.61-.21c2.9-.79 6.19 1.27 6.86 4.27zm-6.85-4.27c1-.35.51-.18 0 0zm.67 8.53c1.7.54 3.55-1.05 3.4-2.85.18-1.81-1.67-3.42-3.39-2.89-1.43.22-1.84 1.77-2.43 2.87.6 1.1 1 2.64 2.42 2.87zm-93.85-4.51a259.8 259.8 0 0 0-.02 3.27h-15.74c0-1.1-.02-2.18-.03-3.27h15.8zm86.24 0l-.03 3.27h-15.74l-.02-3.27h15.79zm-86 6.37a76.27 76.27 0 0 0 2 8.4c-2.77-.08-5.55-.08-8.33-.02v-3.36a488 488 0 0 1 3.21.12l-.89-5.13h4zm69.98 0l4 .02-.9 5.11 3.23-.1c-.02 1.11-.02 2.23-.02 3.36-2.82-.07-5.64.01-8.45-.13a41.63 41.63 0 0 0 2.14-8.26zm-86.49 1.23c.24-.1.47-.17.7-.22 1.76-.56.8-.25 0 0 4.03-.96 8.17 3.54 6.53 7.62-1.18 3.99-6.8 5.25-9.49 2.1-2.9-2.84-1.54-8.29 2.26-9.5zm.44 8.09c1.87 1.2 4.52-.57 4.13-2.81.1-1.98-2.12-3.3-3.83-2.52-2.05.87-2.19 4.19-.3 5.33zm106.06-.68c-1.19 3.97-6.79 5.24-9.47 2.1-2.94-2.85-1.54-8.37 2.31-9.53l.74-.22c4-.87 8.07 3.6 6.42 7.65zm-7.15.37c1.5 1.47 4.36.4 4.49-1.75.54-2.2-1.82-4.24-3.85-3.26-1.86.8-2.13 3.73-.64 5.01zm-79.48 2.38c4.48 8.87 12.55 15.75 21.99 18.45a34.17 34.17 0 0 0 27.21-3.3c6.03-3.5 10.82-8.94 14.05-15.16 1.43.04 2.86.08 4.28.14a39.83 39.83 0 0 1-19.02 20.02 38.73 38.73 0 0 1-29.9 1.64 39.94 39.94 0 0 1-22.89-21.68c1.43-.05 2.86-.08 4.28-.1z"/></defs><g><g transform="translate(-504 -1035)"><use fill="#bfc9ce" xlink:href="#pyika"/></g></g></svg>