<svg xmlns="http://www.w3.org/2000/svg" xmlns:xlink="http://www.w3.org/1999/xlink" width="147" height="91" viewBox="0 0 147 91"><defs><path id="rer4a" d="M976.04 1028.65a45.32 45.32 0 0 1 24.83 23.65c-1.72 0-3.44-.03-5.15-.09-6.26-12.08-18.71-20.71-32.18-21.72-15.6-1.44-31.49 7.54-38.5 21.76-1.7.1-3.42.13-5.14.07a45 45 0 0 1 21.68-22.3 44.01 44.01 0 0 1 34.46-1.37zm5.4 14.14a35.24 35.24 0 0 1 13.65 27.76 35.16 35.16 0 0 1-10.45 25.43 34.34 34.34 0 0 1-26.63 9.96c-10.99-.65-21.36-7.1-27.12-16.57a35.84 35.84 0 0 1-2.48-32.3c4.62-11.32 15.44-19.72 27.43-21.2l.95-.13c8.7-.95 17.74 1.61 24.66 7.05zm-27.58-2.6c-4.25 3-6.8 7.74-8.75 12.46a50.65 50.65 0 0 0 14.45 2.47c0-5.46.02-10.92-.01-16.37v-.05c-1.94.27-4.09.18-5.7 1.5-1.6 1.32 0 0 0 0zm7.36 14.92c4.9-.14 9.83-.85 14.46-2.56-2.73-6.12-6.78-14.04-14.45-13.84-.03 5.47 0 10.93-.01 16.4zm-17.74-2.91c1.91-4.32 4.18-8.54 7.55-11.88a29.22 29.22 0 0 0-13.59 8.68c2 1.08 4.02 2.13 6.04 3.2zm-7.2-2.07c-2.16-1.35 0 0 0 0a34.52 34.52 0 0 0-7.53 19.84l.65.01c3.71.1 7.42.04 11.13.1.16-4.69.7-9.37 1.9-13.9l.65-2.57a42.83 42.83 0 0 1-6.7-3.42c-.9 1.02-.54.6 0 0l-.1-.06zm-7.47 21.45a33.98 33.98 0 0 0 7.44 19.85 63.07 63.07 0 0 1 6.86-3.57 53.77 53.77 0 0 1-2.35-11.84c-.1-1.5-.15-2.98-.22-4.47-3.74.04-7.49.02-11.23.03zm15.84 15.78a52.35 52.35 0 0 1 14.9-2.53c-.03-4.43.14-8.86-.1-13.28-1.27-.03-.8-.02 0 0l-.01-.06c-5.83.24-11.67-.03-17.5.14.12 1.46.24 2.94.4 4.43.4 3.83 1.14 7.63 2.31 11.3zm14.87-30.56v-.08c-5.09 0-10.09-1.06-14.96-2.46-.48 1.84-1.04 3.67-1.45 5.53-.6 3.39-.98 6.81-1.1 10.27 5.9-.02 11.78-.01 17.68-.02-.26-4.4-.04-8.82-.17-13.24zm10.23-16.52c3.34 3.38 5.65 7.57 7.53 11.92 2.04-1.07 4.07-2.12 6.09-3.23a30.4 30.4 0 0 0-13.62-8.7c-5.21-1.54 0 0 0 0zm7.91 13.42a57.68 57.68 0 0 1 2.63 16.3c3.88-.06 7.77 0 11.66-.04a33.5 33.5 0 0 0-7.45-19.83 55.29 55.29 0 0 1-6.84 3.57c-2.34 1.04 0 0 0 0zm-16.45 3.06c.02 4.4 0 8.8.02 13.2 5.8.02 11.62 0 17.44.02-.04-5.36-1.1-10.63-2.39-15.8a54.5 54.5 0 0 1-15.07 2.58zm.05 14.82c-.07 4.41-.04 8.83-.03 13.25 5.04.15 10.08.91 14.88 2.55 1.71-5.04 2.32-10.37 2.64-15.68-5.83-.21-11.66 0-17.5-.12zm19.03.01a58.12 58.12 0 0 1-2.62 16.27 64.54 64.54 0 0 1 6.87 3.57c4.49-5.6 7.15-12.6 7.42-19.8-3.9-.03-7.8 0-11.67-.04-3.89-.04 0 0 0 0zm-35.09 17.22c2.37 6.31 6.7 14.2 14.33 14.06.06-5.48.03-10.95.01-16.41-4.87.07-9.66 1.03-14.34 2.35-4.68 1.33 0 0 0 0zm16.05-2.35c-.04 5.46-.06 10.93 0 16.41 1.86-.25 3.89-.16 5.47-1.35 4.35-2.98 7.08-7.8 8.87-12.69a55.27 55.27 0 0 0-14.34-2.37c-4.87-.1 0 0 0 0zm-23.46 6.16c3.09 4.38 8.37 6.93 13.28 8.84a37.33 37.33 0 0 1-7.4-11.96c-2.01.91-4.23 1.6-5.88 3.12-1.65 1.53 0 0 0 0zm31.9 8.84c4.95-1.91 10.18-4.47 13.34-8.85-1.74-1.46-3.9-2.24-5.93-3.1a36.6 36.6 0 0 1-7.4 11.95zm-68.33-49.62c.3-.18.62-.32.94-.43 1.54-.71.78-.36 0 0 4.22-1.5 9.23 2.6 8.34 7.25-.55 4.75-6.79 7.3-10.36 4.11-3.7-2.68-3.03-9.03 1.08-10.93zm2.87 9.13c2.03.17 3.51-2.02 3.07-3.93-.17-2.42-3.45-3.62-5.12-1.9-2.07 1.78-.87 6.03 2.05 5.83zm109.44-9.14c.31-.18.63-.32.95-.43 4.25-1.47 9.23 2.69 8.27 7.34-.6 4.72-6.82 7.2-10.37 4.02-3.68-2.71-2.98-9.06 1.15-10.93zm2.1 9.07c2.2.65 4.32-1.59 3.82-3.8-.13-2.42-3.4-3.7-5.1-1.99-1.86 1.56-1.22 5.32 1.28 5.79zm-92.41-5.05a53.93 53.93 0 0 0-2.5 9.46l-4.53-.03c.35-1.95.7-3.88 1.03-5.81-1.23.03-2.44.07-3.66.12-.03-1.25-.08-2.5-.12-3.73l9.78-.01zm83.83.01c-.05 1.23-.09 2.47-.1 3.7l-3.73-.02c.4 1.91.75 3.82 1.1 5.75-1.52 0-3.03 0-4.53.02a56.2 56.2 0 0 0-2.5-9.46l9.76.01zm-107.58 16.28c-.9 4.6-7.07 6.64-10.44 3.42-3.75-2.97-2.52-9.62 2-11.09l.96-.3c4.27-.96 8.78 3.53 7.48 7.97zm-7.13 1.69c2.01.67 4.24-1.19 3.95-3.32.2-2.28-2.54-4.08-4.46-2.9-2.54 1.12-2.23 5.56.51 6.22zm132.8-9.36c.34-.15.7-.26 1.05-.34 1.49-.47.78-.24 0 0 4.47-.92 9.05 4.15 7.16 8.65-1.33 4.43-7.55 5.86-10.62 2.43-3.36-3.13-1.92-9.37 2.4-10.74zm.73 9.12c2.03 1.2 4.8-.66 4.53-3.03.2-2.3-2.53-4.15-4.5-2.94-2.28 1.03-2.29 4.9-.03 5.97zm-105.48-4.8c0 1.22.02 2.44.05 3.68-5.98.02-11.96.02-17.93 0l.13-3.68h17.75zm97.48 0c.02 1.22.06 2.45.1 3.69-5.97 0-11.93.02-17.9-.01.02-1.24.02-2.46.05-3.68H1018zm-97.3 7.26c.87 3.1 1.36 6.3 2.47 9.34-3.17-.06-6.34-.05-9.52-.01l.01-3.7 3.64.08c-.35-1.95-.68-3.89-.98-5.83 1.45 0 2.92 0 4.37.12zm79.38 0c1.45-.13 2.91-.1 4.39-.1-.32 1.92-.67 3.86-1.03 5.8 1.21-.03 2.44-.05 3.66-.06v3.7c-3.17-.05-6.35-.06-9.52 0 1.14-3.03 1.6-6.26 2.5-9.34zm-89.38 7.13c.26 3.84-3.36 7.31-7.12 6.81a6.6 6.6 0 0 1-5.77-6.82c.08-2.63 1.96-5 4.36-5.86l.17-.06c3.83-1.33 8.23 1.83 8.36 5.93zm-7.95 3.28c1.84 1.07 4.52-.31 4.55-2.5.56-2.42-2.1-4.63-4.3-3.53-2.39.98-2.48 4.82-.25 6.03zm111.8-9.2l.23-.07c2.13-.71.62-.2 0 0 3.8-1.18 8.09 1.95 8.17 5.98.26 3.57-2.86 6.9-6.38 6.85a6.5 6.5 0 0 1-6.36-5.2c-.8-3.18 1.35-6.56 4.34-7.55zm1.24 9.48c2.07.6 4.18-1.44 3.8-3.56.03-2.15-2.4-3.66-4.3-2.77-2.71 1.05-2.42 5.74.5 6.33zm-90.92 2.22a40.23 40.23 0 0 0 32.43 22.15c15.71 1.4 31.66-7.83 38.61-22.17 1.7-.04 3.4-.05 5.12-.04-4.35 9.93-12.24 18.22-22 22.73a44.03 44.03 0 0 1-35.1.98 45.39 45.39 0 0 1-24.2-23.7c1.7-.02 3.42 0 5.14.05z"/><linearGradient id="rer4b" x1="959.95" x2="960.93" y1="1025.78" y2="1115.79" gradientUnits="userSpaceOnUse"><stop offset="0" stop-color="#246bad"/><stop offset="1" stop-color="#00c8c8"/></linearGradient></defs><g><g transform="translate(-887 -1025)"><use fill="#222" xlink:href="#rer4a"/><use fill="url(#rer4b)" xlink:href="#rer4a"/></g></g></svg>